<svg id="Calque_1" data-name="Calque 1" xmlns="http://www.w3.org/2000/svg" viewBox="0 0 366.02 253.51" fill="#fff">
    <path
            d="M383.79,180.85h0c-2.64,1.49-6.27,3.42-4.13,7l55.66,67.89a14.38,14.38,0,0,1-11.12,23.49h-26A15.92,15.92,0,0,1,385.58,273L323,192.64a5.71,5.71,0,0,0-4.57-2.2l-12.48.17a6,6,0,0,0-5.9,6v67.22a15.45,15.45,0,0,1-15.45,15.45H270.28a14.78,14.78,0,0,1-14.78-14.78V133.21a8.41,8.41,0,0,1,1.52-4.83L274.72,103h0l6.3,1.62,10,2.58h0l9.05,5.66s0,0,0,0v27.71a5.58,5.58,0,0,0,5.54,5.57l46.35.33a30,30,0,0,0,17-5c4.28-2.88,7.19-5.89,12.57-12.44h0c2.92-4.3,8.59-12.62,7.69-23.78-.84-10.37-.45-15.53-7.32-23.94S375.23,72,358.72,69.56h0l-67.18-.23a6.34,6.34,0,0,0-5.37,2.88l-77.48,118c-7.27,15.15-31.92,15.47-42.13.56l-39.29-57.3a4.35,4.35,0,0,0-7.94,2.46V264.67a14.59,14.59,0,0,1-14.59,14.59H87.17a14.59,14.59,0,0,1-14.59-14.59V39.35A13.62,13.62,0,0,1,86.19,25.74h17a13.11,13.11,0,0,1,10.86,5.77L182.44,132a5.16,5.16,0,0,0,4.46,2.39l.84,0A5.14,5.14,0,0,0,192,132L259.38,31.44a13.25,13.25,0,0,1,10.88-5.7h97.63c25.68.71,60.34,38,62.48,67.69h0s9.84,55.83-46.58,87.42"
            transform="translate(-72.58 -25.74)"/>
    <circle cx="212.94" cy="87.14" r="14.61"/>
</svg>